<svg xmlns="http://www.w3.org/2000/svg" version="1.1" xmlns:xlink="http://www.w3.org/1999/xlink" xmlns:svgjs="http://svgjs.dev/svgjs" width="100%" height="100%" viewBox="0 0 1000 600"><rect width="1000" height="600" x="0" y="0" fill="#0b473b"/><g><rect width="333.3333333333333" height="333.3333333333333" rx="13.333333333333334" ry="13.333333333333334" y="224.27854797705015" fill="#f9b13e" transform="matrix(0.6186394121636752,0,0,0.6186394121636752,0,58.145886039306475)" x="202.0563201904297"/><path d="M315.2706046082806 327.0761684536602Q315.2706046082806 329.2190255316416 313.1277475302993 329.2190255316416L313.1277475302993 329.2190255316416L263.3956061788157 329.2190255316416Q262.5622728707118 329.2190255316416 262.5622728707118 330.0821207436063L262.5622728707118 330.0821207436063L262.5622728707118 383.2368810390879Q262.5622728707118 384.09997625105257 263.3956061788157 384.09997625105257L263.3956061788157 384.09997625105257L294.7051290404319 384.09997625105257Q296.84798611841325 384.09997625105257 296.84798611841325 386.2428333290339L296.84798611841325 386.2428333290339L296.84798611841325 395.4392616220372Q296.84798611841325 397.5821187000185 294.7051290404319 397.5821187000185L294.7051290404319 397.5821187000185L263.3956061788157 397.5821187000185Q262.5622728707118 397.5821187000185 262.5622728707118 398.4452139119832L262.5622728707118 398.4452139119832L262.5622728707118 451.8083075344908Q262.5622728707118 452.6714027464555 263.3956061788157 452.6714027464555L263.3956061788157 452.6714027464555L313.1277475302993 452.6714027464555Q315.2706046082806 452.6714027464555 315.2706046082806 454.8142598244368L315.2706046082806 454.8142598244368L315.2706046082806 463.8023547904141Q315.2706046082806 465.94521186839546 313.1277475302993 465.94521186839546L313.1277475302993 465.94521186839546L249.46703517193694 465.94521186839546Q247.3241780939556 465.94521186839546 247.3241780939556 463.8023547904141L247.3241780939556 463.8023547904141L247.3241780939556 318.08807348768295Q247.3241780939556 315.94521640970163 249.46703517193694 315.94521640970163L249.46703517193694 315.94521640970163L313.1277475302993 315.94521640970163Q315.2706046082806 315.94521640970163 315.2706046082806 318.08807348768295L315.2706046082806 318.08807348768295L315.2706046082806 327.0761684536602ZM358.1277461679074 465.94521186839546Q356.19322241695204 465.94521186839546 355.7765557629001 464.0106881174401L355.7765557629001 464.0106881174401L329.19917561515933 359.8737865083191L328.99084228813336 359.01069129635437Q328.99084228813336 357.5225961033118 330.8956041352279 357.5225961033118L330.8956041352279 357.5225961033118L343.336079949064 357.5225961033118Q345.27060370001936 357.5225961033118 345.6872703540713 359.45711985426715L345.6872703540713 359.45711985426715L364.10988884393873 440.6475935866713Q364.3479840748255 441.30235547161004 364.5563174018515 441.30235547161004Q364.7646507288774 441.30235547161004 364.97298405590334 440.6475935866713L364.97298405590334 440.6475935866713L383.18726921874475 359.45711985426715Q383.6336977766575 357.5225961033118 385.5384596237521 357.5225961033118L385.5384596237521 357.5225961033118L397.97893543758823 357.73092943033777Q399.05036397657886 357.73092943033777 399.58607824607424 358.38569131527646Q400.12179251556955 359.01069129635437 399.7051258615177 360.08211983534505L399.7051258615177 360.08211983534505L373.3360790408028 464.0106881174401Q373.12774571377685 465.94521186839546 370.98488863579547 465.94521186839546L370.98488863579547 465.94521186839546L358.1277461679074 465.94521186839546ZM477.05631399587185 465.94521186839546Q475.1217902449165 465.94521186839546 474.70512359086456 464.0106881174401L474.70512359086456 464.0106881174401L469.3479808959112 437.4333079696993Q469.3479808959112 437.01664131564735 469.0205999534418 436.8083079886214Q468.6932190109725 436.5999746615954 468.27655235692055 436.5999746615954L468.27655235692055 436.5999746615954L429.4670297223696 436.5999746615954Q429.05036306831767 436.5999746615954 428.72298212584826 436.8083079886214Q428.39560118337886 437.01664131564735 428.39560118337886 437.4333079696993L428.39560118337886 437.4333079696993L423.0384584884256 464.0106881174401Q422.8301251613996 465.94521186839546 420.6872680834183 465.94521186839546L420.6872680834183 465.94521186839546L409.76464936648557 465.94521186839546Q408.6932208274949 465.94521186839546 408.15750655799957 465.2904499834567Q407.62179228850425 464.6654500023788 407.83012561553016 463.5940214633882L407.83012561553016 463.5940214633882L439.97298178525034 317.879740160657Q440.4194103431631 315.94521640970163 442.3241721902576 315.94521640970163L442.3241721902576 315.94521640970163L455.18131465814565 315.94521640970163Q457.324171736127 315.94521640970163 457.56226696701384 317.879740160657L457.56226696701384 317.879740160657L490.1217897907859 463.5940214633882L490.1217897907859 464.0106881174401Q490.1217897907859 465.94521186839546 488.18726603983043 465.94521186839546L488.18726603983043 465.94521186839546L477.05631399587185 465.94521186839546ZM431.193220146299 423.2964036357946Q431.193220146299 424.1594988477593 431.84798203123773 424.1594988477593L431.84798203123773 424.1594988477593L465.6872667210264 424.1594988477593Q466.3420286059652 424.1594988477593 466.3420286059652 423.2964036357946L466.3420286059652 423.2964036357946L449.1991719821144 339.0999776134444Q448.9908386550885 338.4452157285057 448.75274342420164 338.4452157285057Q448.5444100971757 338.4452157285057 448.33607677014976 339.0999776134444L448.33607677014976 339.0999776134444L431.193220146299 423.2964036357946Z " fill="#0b473b" transform="matrix(0.6186394121636752,0,0,0.6186394121636752,0,58.145886039306475)"/><path d="M671.5702014247414 324.602622400209Q671.5702014247414 326.26928898838395 669.9035348365665 326.26928898838395L669.9035348365665 326.26928898838395L631.2229811026727 326.26928898838395Q630.574832985049 326.26928898838395 630.574832985049 326.9405852530655L630.574832985049 326.9405852530655L630.574832985049 368.28317589862763Q630.574832985049 368.9544721633092 631.2229811026727 368.9544721633092L631.2229811026727 368.9544721633092L655.5748318076735 368.9544721633092Q657.2414983958483 368.9544721633092 657.2414983958483 370.6211387514842L657.2414983958483 370.6211387514842L657.2414983958483 377.7739161924017Q657.2414983958483 379.4405827805767 655.5748318076735 379.4405827805767L655.5748318076735 379.4405827805767L631.2229811026727 379.4405827805767Q630.574832985049 379.4405827805767 630.574832985049 380.11187904525826L630.574832985049 380.11187904525826L630.574832985049 421.61650672022625Q630.574832985049 422.28780298490784 631.2229811026727 422.28780298490784L631.2229811026727 422.28780298490784L669.9035348365665 422.28780298490784Q671.5702014247414 422.28780298490784 671.5702014247414 423.9544695730828L671.5702014247414 423.9544695730828L671.5702014247414 430.94520998459444Q671.5702014247414 432.6118765727694 669.9035348365665 432.6118765727694L669.9035348365665 432.6118765727694L620.3896482795354 432.6118765727694Q618.7229816913605 432.6118765727694 618.7229816913605 430.94520998459444L618.7229816913605 430.94520998459444L618.7229816913605 317.61188198869735Q618.7229816913605 315.9452154005224 620.3896482795354 315.9452154005224L620.3896482795354 315.9452154005224L669.9035348365665 315.9452154005224Q671.5702014247414 315.9452154005224 671.5702014247414 317.61188198869735L671.5702014247414 317.61188198869735L671.5702014247414 324.602622400209ZM704.9035331882405 432.6118765727694Q703.3989036294715 432.6118765727694 703.0748295706596 431.10724701400034L703.0748295706596 431.10724701400034L682.4035342478786 350.111880458109L682.2414972184728 349.4405841934274Q682.2414972184728 348.28317684052814 683.7229786301838 348.28317684052814L683.7229786301838 348.28317684052814L693.3989041004218 348.28317684052814Q694.9035336591908 348.28317684052814 695.2276077180027 349.7878063992972L695.2276077180027 349.7878063992972L709.5563107468956 412.9359515734817Q709.7414959233595 413.4452108087574 709.9035329527654 413.4452108087574Q710.0655699821714 413.4452108087574 710.2276070115772 412.9359515734817L710.2276070115772 412.9359515734817L724.3942730110643 349.7878063992972Q724.7414952169341 348.28317684052814 726.2229766286453 348.28317684052814L726.2229766286453 348.28317684052814L735.8989020988831 348.44521386993404Q736.7322353929707 348.44521386993404 737.1489020400144 348.95447310520973Q737.5655686870581 349.4405841934274 737.2414946282463 350.2739174875149L737.2414946282463 350.2739174875149L716.7322363348711 431.10724701400034Q716.5701993054653 432.6118765727694 714.9035327172903 432.6118765727694L714.9035327172903 432.6118765727694L704.9035331882405 432.6118765727694ZM800.7368620083006 393.283174721252Q800.7368620083006 394.949841309427 799.0701954201256 394.949841309427L799.0701954201256 394.949841309427L761.0609379509134 394.949841309427Q760.3896416862318 394.949841309427 760.3896416862318 395.6211375741085L760.3896416862318 395.6211375741085L760.3896416862318 407.7739147795509Q760.3896416862318 414.78780333812057 764.3248266860894 419.1859512791378Q768.2368635388889 423.607247367213 774.5563076857189 423.607247367213L774.5563076857189 423.607247367213Q779.9035296561136 423.607247367213 783.6535294795073 420.36650677909506Q787.4035293029009 417.1026180439191 788.5609366558002 411.9405812499883L788.5609366558002 411.9405812499883Q789.0701958910759 410.43595169121926 790.389640273381 410.43595169121926L790.389640273381 410.43595169121926L798.7229732142558 410.78317389708906Q799.3942694789374 410.78317389708906 799.903528714213 411.26928498530674Q800.3896398024308 411.77854422058243 800.227602773025 412.6118775146699L800.227602773025 412.6118775146699Q798.9081583907197 422.44984001431374 792.1488994497879 428.1905804846942Q785.3896405088562 433.9544691021326 774.5563076857189 433.9544691021326L774.5563076857189 433.9544691021326Q762.7276045390884 433.9544691021326 755.6442715393448 426.94058054356293Q748.5609385396012 419.9498401320513 748.5609385396012 408.4452110442325L748.5609385396012 408.4452110442325L748.5609385396012 372.44984236906504Q748.5609385396012 361.10725031065215 755.6442715393448 354.02391731090853Q762.7276045390884 346.940584311165 774.5563076857189 346.940584311165L774.5563076857189 346.940584311165Q786.5701960088135 346.940584311165 793.653529008557 354.02391731090853Q800.7368620083006 361.10725031065215 800.7368620083006 372.44984236906504L800.7368620083006 372.44984236906504L800.7368620083006 393.283174721252ZM774.5563076857189 357.28780604608454Q768.2368635388889 357.28780604608454 764.3248266860894 361.68595398710175Q760.3896416862318 366.107250075177 760.3896416862318 373.2831756631525L760.3896416862318 373.2831756631525L760.3896416862318 384.44058254510156Q760.3896416862318 385.1118788097831 761.0609379509134 385.1118788097831L761.0609379509134 385.1118788097831L788.3988996263943 385.1118788097831Q789.0701958910759 385.1118788097831 789.0701958910759 384.44058254510156L789.0701958910759 384.44058254510156L789.0701958910759 373.2831756631525Q789.0701958910759 366.107250075177 785.0655664500443 361.68595398710175Q781.0609370090128 357.28780604608454 774.5563076857189 357.28780604608454L774.5563076857189 357.28780604608454ZM846.7322302125178 347.44984354644066Q850.8988966829552 347.44984354644066 853.9081558004933 349.2785471640215L853.9081558004933 349.2785471640215Q855.0655631533925 349.9498434287031 854.7414890945807 351.4544729874722L854.7414890945807 351.4544729874722L852.7276003005361 360.1118799871588Q852.5655632711301 361.6165095459278 850.7368596535492 361.10725031065215L850.7368596535492 361.10725031065215Q848.7229708595046 360.1118799871588 845.7368598890243 360.1118799871588L845.7368598890243 360.1118799871588Q844.3942673596613 360.1118799871588 843.7229710949797 360.27391701656467L843.7229710949797 360.27391701656467Q837.7276010069614 360.62113922243446 833.9081567423938 366.52391672222075Q830.0655643307682 372.44984236906504 830.0655643307682 380.9452123393457L830.0655643307682 380.9452123393457L830.0655643307682 430.94520998459444Q830.0655643307682 432.6118765727694 828.3988977425932 432.6118765727694L828.3988977425932 432.6118765727694L819.9035277723126 432.6118765727694Q818.2368611841376 432.6118765727694 818.2368611841376 430.94520998459444L818.2368611841376 430.94520998459444L818.2368611841376 349.9498434287031Q818.2368611841376 348.28317684052814 819.9035277723126 348.28317684052814L819.9035277723126 348.28317684052814L828.3988977425932 348.28317684052814Q830.0655643307682 348.28317684052814 830.0655643307682 349.9498434287031L830.0655643307682 349.9498434287031L830.0655643307682 359.9498429577529Q830.0655643307682 360.43595404597056 830.3201939484061 360.43595404597056Q830.574823566044 360.43595404597056 830.8988976248556 360.1118799871588L830.8988976248556 360.1118799871588Q835.7368603599747 347.44984354644066 846.7322302125178 347.44984354644066L846.7322302125178 347.44984354644066ZM866.2229700353416 465.94520833626854Q865.8988959765297 465.94520833626854 865.5748219177179 465.4359491009929Q865.2275997118481 464.94983801277516 865.2275997118481 464.2785417480936L865.2275997118481 464.2785417480936L865.2275997118481 457.6118753953937Q865.2275997118481 455.94520880721876 866.8942663000232 455.94520880721876L866.8942663000232 455.94520880721876Q872.0563030939539 455.7831717778129 874.97296962326 453.954468160232Q877.8896361525663 452.1026163955932 879.7414879172052 447.4498388369381Q881.570191534786 442.773913131225 883.3988951523668 433.12113580804504L883.3988951523668 433.12113580804504Q883.5609321817727 432.7739136021753 883.4914877405988 432.5192839845375Q883.3988951523668 432.2878025139576 883.3988951523668 432.1026173374937L883.3988951523668 432.1026173374937L862.2414887413681 350.111880458109L862.0563035649042 349.6026212228333Q862.0563035649042 348.28317684052814 863.7229701530791 348.28317684052814L863.7229701530791 348.28317684052814L872.7275993586355 348.28317684052814Q874.3942659468105 348.28317684052814 874.5563029762163 349.7878063992972L874.5563029762163 349.7878063992972L889.2322282109792 415.27391442633825Q889.394265240385 415.78317366161394 889.556302269791 415.78317366161394Q889.7414874462548 415.78317366161394 889.9035244756608 415.27391442633825L889.9035244756608 415.27391442633825L904.3942645339597 349.7878063992972Q904.7414867398295 348.28317684052814 906.2229681515405 348.28317684052814L906.2229681515405 348.28317684052814L915.5748195629667 348.44521386993404Q916.4081528570541 348.44521386993404 916.8248195040978 348.95447310520973Q917.2414861511415 349.4405841934274 916.8942639452719 350.2739174875149L916.8942639452719 350.2739174875149L893.7229687402285 439.9498391901508Q890.7368577697482 451.1072460720998 887.820191240442 456.45446804249445Q884.9035247111359 461.77854186583113 880.2275990054228 463.86187510104986Q875.5748214467677 465.94520833626854 867.056303329429 465.94520833626854L867.056303329429 465.94520833626854L866.2229700353416 465.94520833626854ZM976.2229648548887 432.6118765727694Q974.7414834431777 432.6118765727694 974.3942612373079 431.10724701400034L974.3942612373079 431.10724701400034L970.2275947668704 410.43595169121926Q970.2275947668704 410.11187763240747 969.9729651492326 409.9498406030016Q969.7414836786528 409.7878035735957 969.394261472783 409.7878035735957L969.394261472783 409.7878035735957L939.2322258562278 409.7878035735957Q938.908151797416 409.7878035735957 938.6535221797783 409.9498406030016Q938.3988925621404 410.11187763240747 938.3988925621404 410.43595169121926L938.3988925621404 410.43595169121926L934.2322260917031 431.10724701400034Q934.0701890622971 432.6118765727694 932.4035224741222 432.6118765727694L932.4035224741222 432.6118765727694L923.9081525038415 432.6118765727694Q923.074819209754 432.6118765727694 922.6581525627103 432.1026173374937Q922.2414859156665 431.61650624927603 922.4035229450724 430.78317295518855L922.4035229450724 430.78317295518855L947.4035217676967 317.44984495929145Q947.7275958265086 315.9452154005224 949.2322253852776 315.9452154005224L949.2322253852776 315.9452154005224L959.2322249143274 315.9452154005224Q960.8988915025024 315.9452154005224 961.0609285319082 317.44984495929145L961.0609285319082 317.44984495929145L986.4081495604023 430.78317295518855L986.4081495604023 431.10724701400034Q986.4081495604023 432.6118765727694 984.9035200016333 432.6118765727694L984.9035200016333 432.6118765727694L976.2229648548887 432.6118765727694ZM940.574818385591 399.4405818386761Q940.574818385591 400.1118781033577 941.0609294738088 400.1118781033577L941.0609294738088 400.1118781033577L967.4035208257962 400.1118781033577Q967.889631914014 400.1118781033577 967.889631914014 399.4405818386761L967.889631914014 399.4405818386761L954.5562992086143 333.9544738116351Q954.3942621792085 333.44521457635943 954.2322251498025 333.44521457635943Q954.0701881203966 333.44521457635943 953.9081510909907 333.9544738116351L953.9081510909907 333.9544738116351L940.574818385591 399.4405818386761ZM1027.8896290883124 355.4359542814457Q1027.8896290883124 357.10262086962064 1026.2229625001373 357.10262086962064L1026.2229625001373 357.10262086962064L1013.5609260594193 357.10262086962064Q1012.8896297947379 357.10262086962064 1012.8896297947379 357.7739171343022L1012.8896297947379 357.7739171343022L1012.8896297947379 408.7692851030443Q1012.8896297947379 416.4544699262955 1015.5748148534642 419.3711364556017Q1018.2368517651324 422.28780298490784 1023.722962617875 422.102617808444L1023.722962617875 422.102617808444L1025.38962920605 422.102617808444Q1027.056295794225 422.102617808444 1027.056295794225 423.7692843966189L1027.056295794225 423.7692843966189L1027.056295794225 430.94520998459444Q1027.056295794225 432.6118765727694 1025.38962920605 432.6118765727694L1025.38962920605 432.6118765727694L1021.2229627356126 432.6118765727694Q1011.4081483830267 432.6118765727694 1006.3155560302699 428.3526175141Q1001.222963677513 424.1165066024887 1001.222963677513 412.2878034558581L1001.222963677513 412.2878034558581L1001.222963677513 357.7739171343022Q1001.222963677513 357.10262086962064 1000.5748155598894 357.10262086962064L1000.5748155598894 357.10262086962064L994.0701862365956 357.10262086962064Q992.4035196484206 357.10262086962064 992.4035196484206 355.4359542814457L992.4035196484206 355.4359542814457L992.4035196484206 349.9498434287031Q992.4035196484206 348.28317684052814 994.0701862365956 348.28317684052814L994.0701862365956 348.28317684052814L1000.5748155598894 348.28317684052814Q1001.222963677513 348.28317684052814 1001.222963677513 347.61188057584656L1001.222963677513 347.61188057584656L1001.222963677513 328.95447404711024Q1001.222963677513 327.2878074589353 1002.889630265688 327.2878074589353L1002.889630265688 327.2878074589353L1011.2229632065628 327.2878074589353Q1012.8896297947379 327.2878074589353 1012.8896297947379 328.95447404711024L1012.8896297947379 328.95447404711024L1012.8896297947379 347.61188057584656Q1012.8896297947379 348.28317684052814 1013.5609260594193 348.28317684052814L1013.5609260594193 348.28317684052814L1026.2229625001373 348.28317684052814Q1027.8896290883124 348.28317684052814 1027.8896290883124 349.9498434287031L1027.8896290883124 349.9498434287031L1027.8896290883124 355.4359542814457ZM1072.4035158808185 355.4359542814457Q1072.4035158808185 357.10262086962064 1070.7368492926435 357.10262086962064L1070.7368492926435 357.10262086962064L1058.0748128519253 357.10262086962064Q1057.403516587244 357.10262086962064 1057.403516587244 357.7739171343022L1057.403516587244 357.7739171343022L1057.403516587244 408.7692851030443Q1057.403516587244 416.4544699262955 1060.0655534989123 419.3711364556017Q1062.7275904105807 422.28780298490784 1068.2368494103812 422.102617808444L1068.2368494103812 422.102617808444L1069.903515998556 422.102617808444Q1071.570182586731 422.102617808444 1071.570182586731 423.7692843966189L1071.570182586731 423.7692843966189L1071.570182586731 430.94520998459444Q1071.570182586731 432.6118765727694 1069.903515998556 432.6118765727694L1069.903515998556 432.6118765727694L1065.7368495281187 432.6118765727694Q1055.8988870284747 432.6118765727694 1050.8062946757182 428.3526175141Q1045.7368504700194 424.1165066024887 1045.7368504700194 412.2878034558581L1045.7368504700194 412.2878034558581L1045.7368504700194 357.7739171343022Q1045.7368504700194 357.10262086962064 1045.0655542053378 357.10262086962064L1045.0655542053378 357.10262086962064L1038.5609248820438 357.10262086962064Q1036.894258293869 357.10262086962064 1036.894258293869 355.4359542814457L1036.894258293869 355.4359542814457L1036.894258293869 349.9498434287031Q1036.894258293869 348.28317684052814 1038.5609248820438 348.28317684052814L1038.5609248820438 348.28317684052814L1045.0655542053378 348.28317684052814Q1045.7368504700194 348.28317684052814 1045.7368504700194 347.61188057584656L1045.7368504700194 347.61188057584656L1045.7368504700194 328.95447404711024Q1045.7368504700194 327.2878074589353 1047.4035170581942 327.2878074589353L1047.4035170581942 327.2878074589353L1055.736849999069 327.2878074589353Q1057.403516587244 327.2878074589353 1057.403516587244 328.95447404711024L1057.403516587244 328.95447404711024L1057.403516587244 347.61188057584656Q1057.403516587244 348.28317684052814 1058.0748128519253 348.28317684052814L1058.0748128519253 348.28317684052814L1070.7368492926435 348.28317684052814Q1072.4035158808185 348.28317684052814 1072.4035158808185 349.9498434287031L1072.4035158808185 349.9498434287031L1072.4035158808185 355.4359542814457ZM1137.5655498490478 393.283174721252Q1137.5655498490478 394.949841309427 1135.898883260873 394.949841309427L1135.898883260873 394.949841309427L1097.8896257916606 394.949841309427Q1097.241477674037 394.949841309427 1097.241477674037 395.6211375741085L1097.241477674037 395.6211375741085L1097.241477674037 407.7739147795509Q1097.241477674037 414.78780333812057 1101.1535145268367 419.1859512791378Q1105.065551379636 423.607247367213 1111.4081436735241 423.607247367213L1111.4081436735241 423.607247367213Q1116.7322174968608 423.607247367213 1120.4822173202544 420.36650677909506Q1124.232217143648 417.1026180439191 1125.3896244965474 411.9405812499883L1125.3896244965474 411.9405812499883Q1125.898883731823 410.43595169121926 1127.241476261186 410.43595169121926L1127.241476261186 410.43595169121926L1135.574809202061 410.78317389708906Q1136.2229573196846 410.78317389708906 1136.7322165549604 411.26928498530674Q1137.241475790236 411.77854422058243 1137.056290613772 412.6118775146699L1137.056290613772 412.6118775146699Q1135.7368462314669 422.44984001431374 1128.9775872905352 428.1905804846942Q1122.2414764966613 433.9544691021326 1111.4081436735241 433.9544691021326L1111.4081436735241 433.9544691021326Q1099.5562923798357 433.9544691021326 1092.4729593800919 426.94058054356293Q1085.3896263803485 419.9498401320513 1085.3896263803485 408.4452110442325L1085.3896263803485 408.4452110442325L1085.3896263803485 372.44984236906504Q1085.3896263803485 361.10725031065215 1092.4729593800919 354.02391731090853Q1099.5562923798357 346.940584311165 1111.4081436735241 346.940584311165L1111.4081436735241 346.940584311165Q1123.3988838495607 346.940584311165 1130.4822168493042 354.02391731090853Q1137.5655498490478 361.10725031065215 1137.5655498490478 372.44984236906504L1137.5655498490478 372.44984236906504L1137.5655498490478 393.283174721252ZM1111.4081436735241 357.28780604608454Q1105.065551379636 357.28780604608454 1101.1535145268367 361.68595398710175Q1097.241477674037 366.107250075177 1097.241477674037 373.2831756631525L1097.241477674037 373.2831756631525L1097.241477674037 384.44058254510156Q1097.241477674037 385.1118788097831 1097.8896257916606 385.1118788097831L1097.8896257916606 385.1118788097831L1125.2275874671413 385.1118788097831Q1125.898883731823 385.1118788097831 1125.898883731823 384.44058254510156L1125.898883731823 384.44058254510156L1125.898883731823 373.2831756631525Q1125.898883731823 366.107250075177 1121.8942542907917 361.68595398710175Q1117.88962484976 357.28780604608454 1111.4081436735241 357.28780604608454L1111.4081436735241 357.28780604608454ZM1185.0655476120342 347.1026213405709Q1195.2275841704895 347.1026213405709 1200.806287611464 354.1165098991405Q1206.4081391994966 361.10725031065215 1206.4081391994966 373.6072497219643L1206.4081391994966 373.6072497219643L1206.4081391994966 430.94520998459444Q1206.4081391994966 432.6118765727694 1204.7414726113216 432.6118765727694L1204.7414726113216 432.6118765727694L1196.222954493983 432.6118765727694Q1194.556287905808 432.6118765727694 1194.556287905808 430.94520998459444L1194.556287905808 430.94520998459444L1194.556287905808 374.6026200454577Q1194.556287905808 366.4544722810468 1190.9914732588784 361.94058360473963Q1187.4035104648906 357.44984307549043 1181.0609181710026 357.44984307549043L1181.0609181710026 357.44984307549043Q1174.3942518183026 357.44984307549043 1170.6442519949092 362.28780581060937Q1166.8942521715153 367.10262039867035 1166.8942521715153 375.43595333954516L1166.8942521715153 375.43595333954516L1166.8942521715153 430.94520998459444Q1166.8942521715153 432.6118765727694 1165.2275855833404 432.6118765727694L1165.2275855833404 432.6118765727694L1156.73221561306 432.6118765727694Q1155.0655490248848 432.6118765727694 1155.0655490248848 430.94520998459444L1155.0655490248848 430.94520998459444L1155.0655490248848 349.9498434287031Q1155.0655490248848 348.28317684052814 1156.73221561306 348.28317684052814L1156.73221561306 348.28317684052814L1165.2275855833404 348.28317684052814Q1166.8942521715153 348.28317684052814 1166.8942521715153 349.9498434287031L1166.8942521715153 349.9498434287031L1166.8942521715153 355.2739172520398Q1166.8942521715153 355.6211394579096 1167.2414743773852 355.7831764873155Q1167.5655484361969 355.94521351672137 1167.727585465603 355.4359542814457L1167.727585465603 355.4359542814457Q1170.736844583141 351.26928781100827 1175.320177700622 349.1859545757896Q1179.9035108181033 347.1026213405709 1185.0655476120342 347.1026213405709L1185.0655476120342 347.1026213405709ZM1264.0701735209386 317.61188198869735Q1264.0701735209386 315.9452154005224 1265.7368401091135 315.9452154005224L1265.7368401091135 315.9452154005224L1274.232210079394 315.9452154005224Q1275.8988766675689 315.9452154005224 1275.8988766675689 317.61188198869735L1275.8988766675689 317.61188198869735L1275.8988766675689 430.94520998459444Q1275.8988766675689 432.6118765727694 1274.232210079394 432.6118765727694L1274.232210079394 432.6118765727694L1265.7368401091135 432.6118765727694Q1264.0701735209386 432.6118765727694 1264.0701735209386 430.94520998459444L1264.0701735209386 430.94520998459444L1264.0701735209386 427.28780274943273Q1264.0701735209386 426.94058054356293 1263.8155439033007 426.77854351415704Q1263.5609142856629 426.61650648475114 1263.2368402268507 426.94058054356293L1263.2368402268507 426.94058054356293Q1256.894247932963 433.9544691021326 1247.241470609783 433.9544691021326L1247.241470609783 433.9544691021326Q1236.5701748160513 433.9544691021326 1230.2275825221636 426.871136102389Q1223.9081383753337 419.7878031026454 1223.9081383753337 408.4452110442325L1223.9081383753337 408.4452110442325L1223.9081383753337 372.44984236906504Q1223.9081383753337 360.78317625184036 1230.2275825221636 353.86188028150264Q1236.5701748160513 346.940584311165 1247.241470609783 346.940584311165L1247.241470609783 346.940584311165Q1257.0562849623689 346.940584311165 1263.2368402268507 354.1165098991405L1263.2368402268507 354.1165098991405Q1263.5609142856629 354.4405839579523 1263.8155439033007 354.2785469285464Q1264.0701735209386 354.1165098991405 1264.0701735209386 353.7692876932707L1264.0701735209386 353.7692876932707L1264.0701735209386 317.61188198869735ZM1250.0655445508573 423.607247367213Q1256.2229516682814 423.607247367213 1260.158136668139 419.1859512791378Q1264.0701735209386 414.78780333812057 1264.0701735209386 407.7739147795509L1264.0701735209386 407.7739147795509L1264.0701735209386 373.2831756631525Q1264.0701735209386 366.107250075177 1260.158136668139 361.68595398710175Q1256.2229516682814 357.28780604608454 1250.0655445508573 357.28780604608454L1250.0655445508573 357.28780604608454Q1243.7229522569692 357.28780604608454 1239.6488783747636 361.68595398710175Q1235.574804492558 366.107250075177 1235.574804492558 373.2831756631525L1235.574804492558 373.2831756631525L1235.574804492558 407.7739147795509Q1235.574804492558 414.78780333812057 1239.6488783747636 419.1859512791378Q1243.7229522569692 423.607247367213 1250.0655445508573 423.607247367213L1250.0655445508573 423.607247367213ZM1346.5701696355986 393.283174721252Q1346.5701696355986 394.949841309427 1344.9035030474238 394.949841309427L1344.9035030474238 394.949841309427L1306.8942455782117 394.949841309427Q1306.22294931353 394.949841309427 1306.22294931353 395.6211375741085L1306.22294931353 395.6211375741085L1306.22294931353 407.7739147795509Q1306.22294931353 414.78780333812057 1310.1581343133876 419.1859512791378Q1314.0701711661873 423.607247367213 1320.3896153130172 423.607247367213L1320.3896153130172 423.607247367213Q1325.7368372834117 423.607247367213 1329.4868371068055 420.36650677909506Q1333.236836930199 417.1026180439191 1334.3942442830985 411.9405812499883L1334.3942442830985 411.9405812499883Q1334.9035035183742 410.43595169121926 1336.2229479006792 410.43595169121926L1336.2229479006792 410.43595169121926L1344.5562808415539 410.78317389708906Q1345.2275771062355 410.78317389708906 1345.7368363415112 411.26928498530674Q1346.2229474297287 411.77854422058243 1346.0609104003229 412.6118775146699L1346.0609104003229 412.6118775146699Q1344.741466018018 422.44984001431374 1337.982207077086 428.1905804846942Q1331.2229481361546 433.9544691021326 1320.3896153130172 433.9544691021326L1320.3896153130172 433.9544691021326Q1308.5609121663865 433.9544691021326 1301.477579166643 426.94058054356293Q1294.3942461668994 419.9498401320513 1294.3942461668994 408.4452110442325L1294.3942461668994 408.4452110442325L1294.3942461668994 372.44984236906504Q1294.3942461668994 361.10725031065215 1301.477579166643 354.02391731090853Q1308.5609121663865 346.940584311165 1320.3896153130172 346.940584311165L1320.3896153130172 346.940584311165Q1332.4035036361115 346.940584311165 1339.486836635855 354.02391731090853Q1346.5701696355986 361.10725031065215 1346.5701696355986 372.44984236906504L1346.5701696355986 372.44984236906504L1346.5701696355986 393.283174721252ZM1320.3896153130172 357.28780604608454Q1314.0701711661873 357.28780604608454 1310.1581343133876 361.68595398710175Q1306.22294931353 366.107250075177 1306.22294931353 373.2831756631525L1306.22294931353 373.2831756631525L1306.22294931353 384.44058254510156Q1306.22294931353 385.1118788097831 1306.8942455782117 385.1118788097831L1306.8942455782117 385.1118788097831L1334.2322072536926 385.1118788097831Q1334.9035035183742 385.1118788097831 1334.9035035183742 384.44058254510156L1334.9035035183742 384.44058254510156L1334.9035035183742 373.2831756631525Q1334.9035035183742 366.107250075177 1330.8988740773425 361.68595398710175Q1326.8942446363112 357.28780604608454 1320.3896153130172 357.28780604608454L1320.3896153130172 357.28780604608454ZM1414.3942405154962 393.283174721252Q1414.3942405154962 394.949841309427 1412.7275739273214 394.949841309427L1412.7275739273214 394.949841309427L1374.741464605167 394.949841309427Q1374.0701683404855 394.949841309427 1374.0701683404855 395.6211375741085L1374.0701683404855 395.6211375741085L1374.0701683404855 407.7739147795509Q1374.0701683404855 414.78780333812057 1377.9822051932852 419.1859512791378Q1381.8942420460849 423.607247367213 1388.2368343399726 423.607247367213L1388.2368343399726 423.607247367213Q1393.5609081633093 423.607247367213 1397.3109079867031 420.36650677909506Q1401.0609078100965 417.1026180439191 1402.2414633100539 411.9405812499883L1402.2414633100539 411.9405812499883Q1402.7275743982718 410.43595169121926 1404.070166927635 410.43595169121926L1404.070166927635 410.43595169121926L1412.4034998685097 410.78317389708906Q1413.0747961331913 410.78317389708906 1413.5609072214088 411.26928498530674Q1414.0701664566845 411.77854422058243 1413.9081294272787 412.6118775146699L1413.9081294272787 412.6118775146699Q1412.5655368979155 422.44984001431374 1405.8062779569836 428.1905804846942Q1399.07016716311 433.9544691021326 1388.2368343399726 433.9544691021326L1388.2368343399726 433.9544691021326Q1376.408131193342 433.9544691021326 1369.3247981935983 426.94058054356293Q1362.2414651938548 419.9498401320513 1362.2414651938548 408.4452110442325L1362.2414651938548 408.4452110442325L1362.2414651938548 372.44984236906504Q1362.2414651938548 361.10725031065215 1369.3247981935983 354.02391731090853Q1376.408131193342 346.940584311165 1388.2368343399726 346.940584311165L1388.2368343399726 346.940584311165Q1400.227574516009 346.940584311165 1407.3109075157527 354.02391731090853Q1414.3942405154962 361.10725031065215 1414.3942405154962 372.44984236906504L1414.3942405154962 372.44984236906504L1414.3942405154962 393.283174721252ZM1388.2368343399726 357.28780604608454Q1381.8942420460849 357.28780604608454 1377.9822051932852 361.68595398710175Q1374.0701683404855 366.107250075177 1374.0701683404855 373.2831756631525L1374.0701683404855 373.2831756631525L1374.0701683404855 384.44058254510156Q1374.0701683404855 385.1118788097831 1374.741464605167 385.1118788097831L1374.741464605167 385.1118788097831L1402.0562781335898 385.1118788097831Q1402.7275743982718 385.1118788097831 1402.7275743982718 384.44058254510156L1402.7275743982718 384.44058254510156L1402.7275743982718 373.2831756631525Q1402.7275743982718 366.107250075177 1398.72294495724 361.68595398710175Q1394.7414636632666 357.28780604608454 1388.2368343399726 357.28780604608454L1388.2368343399726 357.28780604608454Z " fill="#f9b13e" transform="matrix(0.6186394121636752,0,0,0.6186394121636752,0,58.145886039306475)"/></g></svg>